<svg xmlns="http://www.w3.org/2000/svg" viewBox="0 0 448 512"><!--! Font Awesome Pro 6.0.0-beta2 by @fontawesome - https://fontawesome.com License - https://fontawesome.com/license (Commercial License) --><path d="M184.8 417.1L137 423.9C131.8 424.6 127.4 420.2 128.1 415L134.1 367.2C134.5 363.6 136.1 360.4 138.6 357.8L222.6 273.8L278.2 329.4L194.2 413.4C191.7 415.9 188.4 417.5 184.8 417.1V417.1zM300.8 306.7L245.3 251.2L254.1 241.5C267.5 228.1 287.7 228.1 300.2 241.5L310.5 251.8C323 264.3 323 284.5 310.5 297L300.8 306.7zM128 0C141.3 0 152 10.75 152 24V64H296V24C296 10.75 306.7 0 320 0C333.3 0 344 10.75 344 24V64H384C419.3 64 448 92.65 448 128V448C448 483.3 419.3 512 384 512H64C28.65 512 0 483.3 0 448V128C0 92.65 28.65 64 64 64H104V24C104 10.75 114.7 0 128 0zM400 192H48V448C48 456.8 55.16 464 64 464H384C392.8 464 400 456.8 400 448V192z"/></svg>