<svg xmlns="http://www.w3.org/2000/svg" viewBox="0 0 384 512"><!--! Font Awesome Pro 6.0.0-beta2 by @fontawesome - https://fontawesome.com License - https://fontawesome.com/license (Commercial License) --><path d="M371 274.7C362.6 288.8 350.5 300.4 336 308.3V352C336 360.5 332.6 368.6 326.6 374.6C320.6 380.6 312.5 384 304 384H300.8L291 483.2C290.2 491.1 286.6 498.4 280.7 503.7C274.8 509.1 267.1 512 259.2 512H125.1C117.2 512 109.5 509.1 103.6 503.8C97.64 498.5 93.92 491.1 93.12 483.2L83.2 384H80C71.51 384 63.38 380.6 57.37 374.6C51.37 368.6 48 360.5 48 352V308.3C32.13 299.7 19.14 286.7 10.69 270.7C2.228 254.8-1.323 236.7 .4815 218.8C2.285 200.8 9.363 183.8 20.82 169.9C32.28 155.1 47.61 145.8 64.87 140.5C64.32 137.3 64.03 133.1 64 130.7C63.86 110.3 71.79 90.79 86.03 76.3C100.3 61.81 119.7 53.55 140 53.34H170.5C171.8 53.37 173 52.97 174.1 52.22C175.1 51.48 175.9 50.41 176.3 49.18C176.9 47.79 177.1 46.24 176.9 44.73C176.6 43.22 175.9 41.83 174.8 40.74C171.5 37.35 169.3 33.08 168.4 28.44C167.6 23.81 168.1 19.02 169.9 14.67C171.7 10.33 174.8 6.615 178.7 4.006C182.7 1.397 187.3 .0033 192-.0002C208.9-.1846 225.6 3 241.2 9.368C256.8 15.74 270.1 25.16 282.9 37.08C294.8 49 304.3 63.19 310.6 78.8C317 94.41 320.2 111.1 320 127.1C319.1 132.2 319.6 136.3 318.8 140.4C337.6 146.1 354.1 157.7 365.8 173.5C377.6 189.2 383.9 208.3 384 227.1C383.9 244.5 379.4 260.6 371 274.7L371 274.7zM323.1 259.1C331.4 250.9 336 239.7 336 228C336 216.3 331.4 205.1 323.1 196.9C314.9 188.6 303.7 184 292 184H224C217.6 184 211.5 181.5 207 176.1C202.5 172.5 200 166.4 200 160C200 153.6 202.5 147.5 207 143C211.5 138.5 217.6 136 224 136H270.2C271.2 133.4 271.8 130.7 272 128C272.2 112.4 267.7 97.14 259.2 84.07C250.8 71.01 238.6 60.74 224.3 54.56C223.6 59.12 222.3 63.58 220.5 67.84C216.5 77.79 209.6 86.31 200.6 92.28C191.7 98.25 181.2 101.4 170.5 101.3H140C132.4 101.6 125.2 104.8 119.1 110.2C114.7 115.7 111.9 123.1 112 130.7C112.2 132.5 112.6 134.4 113.2 136.2C119.4 136.5 125.2 139.3 129.4 143.8C133.7 148.4 135.1 154.4 135.8 160.7C135.7 166.9 133.1 172.8 128.6 177.2C124.2 181.5 118.2 183.1 112 184H92C80.33 184 69.14 188.6 60.89 196.9C52.64 205.1 48 216.3 48 228C48 239.7 52.64 250.9 60.89 259.1C69.14 267.4 80.33 272 92 272H292C303.7 272 314.9 267.4 323.1 259.1H323.1z"/></svg>