<svg xmlns="http://www.w3.org/2000/svg" viewBox="0 0 640 512"><!--! Font Awesome Pro 6.0.0-beta2 by @fontawesome - https://fontawesome.com License - https://fontawesome.com/license (Commercial License) --><path d="M128 24C128 10.75 138.7 0 152 0H552C565.3 0 576 10.75 576 24C576 37.25 565.3 48 552 48H376V128H408C518.5 128 608 217.5 608 328V360C608 390.9 582.9 416 552 416H318.6C302.4 416 286.9 408.1 276.3 396.7L185.4 291.8L53.24 233C42.19 228.1 33.96 218.5 30.84 206.8L6.176 114.3C-.5956 88.91 18.54 64 44.83 64H55.1C83.7 64 109.8 77.04 126.4 99.2L147.1 128H328V48H152C138.7 48 128 37.25 128 24H128zM55.24 112L76.23 190.7L214.6 252.2L312.6 365.2C314.1 366.1 316.3 368 318.6 368H384V176H123.1L87.1 128C80.45 117.9 68.59 112 55.1 112L55.24 112zM560 360V328C560 252.2 504.5 189.4 432 177.9V368H552C556.4 368 560 364.4 560 360zM633.6 465.4C616.2 494.3 584.1 512 551.2 512H248C234.7 512 224 501.3 224 488C224 474.7 234.7 464 248 464H551.2C568.1 464 583.7 455.2 592.4 440.7L595.4 435.7C602.2 424.3 616.1 420.6 628.3 427.4C639.7 434.2 643.4 448.1 636.6 460.3L633.6 465.4z"/></svg>