<svg xmlns="http://www.w3.org/2000/svg" viewBox="0 0 640 512"><!--! Font Awesome Pro 6.0.0-beta2 by @fontawesome - https://fontawesome.com License - https://fontawesome.com/license (Commercial License) --><path d="M4.508 57.42C-5.178 30.3 16.1 2.14 44.84 4.056L194.1 14.01C210.9 15.13 224 29.09 224 45.94V224H64L4.508 57.42zM352 15.1C369.7 15.1 384 30.33 384 48V224H256V48C256 30.33 270.3 15.1 288 15.1H352zM64 288C64 270.3 78.33 256 96 256H544C561.7 256 576 270.3 576 288C576 305.7 561.7 320 544 320H542.4C563.1 340.3 576 368.7 576 400C576 461.9 525.9 512 464 512C407.6 512 360.9 470.3 353.1 416H286.9C279.1 470.3 232.4 512 175.1 512C114.1 512 63.1 461.9 63.1 400C63.1 368.7 76.87 340.3 97.62 320H95.1C78.33 320 63.1 305.7 63.1 288H64zM114 416C119.8 438.5 137.5 456.2 160 461.1V416H114zM160 338C137.5 343.8 119.8 361.5 114 384H160V338zM192 461.1C214.5 456.2 232.2 438.5 237.1 416H192V461.1zM192 384H237.1C232.2 361.5 214.5 343.8 192 338V384zM448 461.1V416H402C407.8 438.5 425.5 456.2 448 461.1zM402 384H448V338C425.5 343.8 407.8 361.5 402 384zM480 416V461.1C502.5 456.2 520.2 438.5 525.1 416H480zM525.1 384C520.2 361.5 502.5 343.8 480 338V384H525.1zM595.2 4.056C623.9 2.14 645.2 30.3 635.5 57.42L576 224H416V45.94C416 29.09 429.1 15.13 445.9 14.01L595.2 4.056z"/></svg>