<svg xmlns="http://www.w3.org/2000/svg" viewBox="0 0 640 512"><!--! Font Awesome Pro 6.0.0-beta2 by @fontawesome - https://fontawesome.com License - https://fontawesome.com/license (Commercial License) --><defs><style>.fa-secondary{opacity:.4}</style></defs><path class="fa-primary" d="M128 0C139.5 0 149.4 8.19 151.6 19.51L211.9 336H520C533.3 336 544 346.7 544 360C544 373.3 533.3 384 520 384H191.1C180.5 384 170.6 375.8 168.4 364.5L108.1 48H56C42.75 48 32 37.25 32 24C32 10.75 42.75 0 56 0H128zM160 464C160 437.5 181.5 416 208 416C234.5 416 256 437.5 256 464C256 490.5 234.5 512 208 512C181.5 512 160 490.5 160 464zM544 464C544 490.5 522.5 512 496 512C469.5 512 448 490.5 448 464C448 437.5 469.5 416 496 416C522.5 416 544 437.5 544 464zM320.1 200.1C311.6 210.3 296.4 210.3 287 200.1C277.7 191.6 277.7 176.4 287 167L351 103C360.4 93.66 375.6 93.66 384.1 103L448.1 167C458.3 176.4 458.3 191.6 448.1 200.1C439.6 210.3 424.4 210.3 415 200.1L392 177.9V288H344V177.9L320.1 200.1z"/><path class="fa-secondary" d="M344 288H202.7L153.1 32H573.8C594.1 32 610.3 52.25 604.6 72.66L550.6 264.7C546.7 278.5 534.1 288 519.8 288H392V177.9L415 200.1C424.4 210.3 439.6 210.3 448.1 200.1C458.3 191.6 458.3 176.4 448.1 167L384.1 103C375.6 93.66 360.4 93.66 351 103L287 167C277.7 176.4 277.7 191.6 287 200.1C296.4 210.3 311.6 210.3 320.1 200.1L344 177.9V288z"/></svg>