<svg xmlns="http://www.w3.org/2000/svg" viewBox="0 0 640 512"><!--! Font Awesome Pro 6.0.0-beta2 by @fontawesome - https://fontawesome.com License - https://fontawesome.com/license (Commercial License) --><defs><style>.fa-secondary{opacity:.4}</style></defs><path class="fa-primary" d="M447.4 249.6C447.8 251.9 448.1 254.3 448 256.7V288H512V235.2C512 220.7 516.9 206.6 526 195.2L583 124C594.1 110.2 614.2 107.1 627.1 119C641.8 130.1 644 150.2 632.1 163.1L576 235.2V402.7L630.6 457.4C643.1 469.9 643.1 490.1 630.6 502.6C618.1 515.1 597.9 515.1 585.4 502.6L530.7 448C518.7 435.1 512 419.7 512 402.7V352H469.2C451.2 314.2 412.7 288 368 288H112C94.82 288 78.55 291.9 64 298.8V192C64 174.3 78.33 160 96 160H128V48C128 21.49 149.5 0 176 0H298.9C324.5 0 347.6 15.26 357.7 38.79L445.1 242.7C446.1 244.9 446.9 247.2 447.4 249.6H447.4zM298.9 64H192V160L256 224H367.5L298.9 64zM144 400C144 413.3 133.3 424 120 424C106.7 424 96 413.3 96 400C96 386.7 106.7 376 120 376C133.3 376 144 386.7 144 400zM336 400C336 386.7 346.7 376 360 376C373.3 376 384 386.7 384 400C384 413.3 373.3 424 360 424C346.7 424 336 413.3 336 400zM304 400C304 413.3 293.3 424 280 424C266.7 424 256 413.3 256 400C256 386.7 266.7 376 280 376C293.3 376 304 386.7 304 400zM176 400C176 386.7 186.7 376 200 376C213.3 376 224 386.7 224 400C224 413.3 213.3 424 200 424C186.7 424 176 413.3 176 400z"/><path class="fa-secondary" d="M32 400C32 355.8 67.82 320 112 320H368C412.2 320 448 355.8 448 400C448 444.2 412.2 480 368 480H112C67.82 480 32 444.2 32 400z"/></svg>