<svg xmlns="http://www.w3.org/2000/svg" viewBox="0 0 384 512"><!--! Font Awesome Pro 6.0.0-beta2 by @fontawesome - https://fontawesome.com License - https://fontawesome.com/license (Commercial License) --><path d="M80 104C80 90.75 90.75 80 104 80H152C165.3 80 176 90.75 176 104V152C176 165.3 165.3 176 152 176H104C90.75 176 80 165.3 80 152V104zM112 112V144H144V112H112zM280 80C293.3 80 304 90.75 304 104V152C304 165.3 293.3 176 280 176H232C218.7 176 208 165.3 208 152V104C208 90.75 218.7 80 232 80H280zM272 144V112H240V144H272zM80 232C80 218.7 90.75 208 104 208H152C165.3 208 176 218.7 176 232V280C176 293.3 165.3 304 152 304H104C90.75 304 80 293.3 80 280V232zM112 240V272H144V240H112zM280 208C293.3 208 304 218.7 304 232V280C304 293.3 293.3 304 280 304H232C218.7 304 208 293.3 208 280V232C208 218.7 218.7 208 232 208H280zM272 272V240H240V272H272zM48 512C21.49 512 0 490.5 0 464V48C0 21.49 21.49 0 48 0H336C362.5 0 384 21.49 384 48V464C384 490.5 362.5 512 336 512H48zM32 48V464C32 472.8 39.16 480 48 480H128V432C128 396.7 156.7 368 192 368C227.3 368 256 396.7 256 432V480H336C344.8 480 352 472.8 352 464V48C352 39.16 344.8 32 336 32H48C39.16 32 32 39.16 32 48zM224 480V432C224 414.3 209.7 400 192 400C174.3 400 160 414.3 160 432V480H224z"/></svg>