<svg xmlns="http://www.w3.org/2000/svg" viewBox="0 0 640 512"><!--! Font Awesome Pro 6.0.0-beta2 by @fontawesome - https://fontawesome.com License - https://fontawesome.com/license (Commercial License) --><path d="M80 0C87.47 0 93.95 5.17 95.6 12.45L107.3 64H545.9C562.5 64 576 77.49 576 94.13C576 96.78 575.7 99.41 574.1 101.1L548.6 199.1C538.5 196.8 528 194.6 517.2 193.3L543.4 96H114.6L158.2 288H339.2C334 298.1 329.8 308.8 326.6 320H165.5L172.8 352H320.7C320.2 357.3 320 362.6 320 368C320 373.4 320.2 378.7 320.7 384H160C152.5 384 146.1 378.8 144.4 371.5L67.23 32H16C7.164 32 0 24.84 0 16C0 7.164 7.164 0 16 0H80zM128 456C128 425.1 153.1 400 184 400C214.9 400 240 425.1 240 456C240 486.9 214.9 512 184 512C153.1 512 128 486.9 128 456zM184 480C197.3 480 208 469.3 208 456C208 442.7 197.3 432 184 432C170.7 432 160 442.7 160 456C160 469.3 170.7 480 184 480zM512 351.1H560C568.8 351.1 576 359.2 576 367.1C576 376.8 568.8 383.1 560 383.1H512V431.1C512 440.8 504.8 447.1 496 447.1C487.2 447.1 480 440.8 480 431.1V383.1H432C423.2 383.1 416 376.8 416 367.1C416 359.2 423.2 351.1 432 351.1H480V303.1C480 295.2 487.2 287.1 496 287.1C504.8 287.1 512 295.2 512 303.1V351.1zM640 368C640 447.5 575.5 512 496 512C416.5 512 352 447.5 352 368C352 288.5 416.5 224 496 224C575.5 224 640 288.5 640 368zM496 256C434.1 256 384 306.1 384 368C384 429.9 434.1 480 496 480C557.9 480 608 429.9 608 368C608 306.1 557.9 256 496 256z"/></svg>