<svg xmlns="http://www.w3.org/2000/svg" viewBox="0 0 640 512"><!--! Font Awesome Pro 6.0.0-beta2 by @fontawesome - https://fontawesome.com License - https://fontawesome.com/license (Commercial License) --><path d="M80 0C87.47 0 93.95 5.17 95.6 12.45L107.3 64H545.9C562.5 64 576 77.49 576 94.13C576 96.78 575.7 99.41 574.1 101.1L548.6 199.1C538.5 196.8 528 194.6 517.2 193.3L543.4 96H114.6L158.2 288H339.2C334 298.1 329.8 308.8 326.6 320H165.5L172.8 352H320.7C320.2 357.3 320 362.6 320 368C320 373.4 320.2 378.7 320.7 384H160C152.5 384 146.1 378.8 144.4 371.5L67.23 32H16C7.164 32 0 24.84 0 16C0 7.164 7.164 0 16 0H80zM128 456C128 425.1 153.1 400 184 400C214.9 400 240 425.1 240 456C240 486.9 214.9 512 184 512C153.1 512 128 486.9 128 456zM184 480C197.3 480 208 469.3 208 456C208 442.7 197.3 432 184 432C170.7 432 160 442.7 160 456C160 469.3 170.7 480 184 480zM563.3 324.7C569.6 330.9 569.6 341.1 563.3 347.3L491.3 419.3C485.1 425.6 474.9 425.6 468.7 419.3L428.7 379.3C422.4 373.1 422.4 362.9 428.7 356.7C434.9 350.4 445.1 350.4 451.3 356.7L480 385.4L540.7 324.7C546.9 318.4 557.1 318.4 563.3 324.7H563.3zM352 368C352 288.5 416.5 224 496 224C575.5 224 640 288.5 640 368C640 447.5 575.5 512 496 512C416.5 512 352 447.5 352 368zM496 480C557.9 480 608 429.9 608 368C608 306.1 557.9 256 496 256C434.1 256 384 306.1 384 368C384 429.9 434.1 480 496 480z"/></svg>