<svg xmlns="http://www.w3.org/2000/svg" viewBox="0 0 640 512"><!--! Font Awesome Pro 6.0.0-beta2 by @fontawesome - https://fontawesome.com License - https://fontawesome.com/license (Commercial License) --><path d="M560 0C568.8 0 576 7.164 576 16C576 24.84 568.8 32 560 32H368V128H400C514.9 128 608 221.1 608 336V352C608 378.5 586.5 400 560 400H310.6C296.7 400 283.5 393.1 274.3 383.4L182.2 277.2L48.49 217.7C39.65 213.8 33.06 206.1 30.57 196.7L5.907 104.2C.4893 83.93 15.8 64 36.83 64H48C73.18 64 96.89 75.86 112 96L136 128H336V32H144C135.2 32 128 24.84 128 16C128 7.164 135.2 .0003 144 .0003L560 0zM48 96H36.83L61.49 188.5L201.8 250.8L298.5 362.5C301.6 365.1 305.1 368 310.6 368H384V159.1H120L86.4 115.2C77.34 103.1 63.11 95.1 48 95.1L48 96zM560 368C568.8 368 576 360.8 576 352V336C576 244.2 505.7 168.8 416 160.7V368H560zM637.8 457.3C626.9 489.1 596.3 512 561.9 512H240C231.2 512 224 504.8 224 496C224 487.2 231.2 480 240 480H561.9C582.5 480 600.9 466.8 607.4 447.2L608.8 442.9C611.6 434.6 620.7 430 629.1 432.8C637.4 435.6 641.1 444.7 639.2 453.1L637.8 457.3z"/></svg>