<svg xmlns="http://www.w3.org/2000/svg" viewBox="0 0 640 512"><!--! Font Awesome Pro 6.0.0-beta2 by @fontawesome - https://fontawesome.com License - https://fontawesome.com/license (Commercial License) --><path d="M579.4 80H475.8C475.2 79.34 474.6 78.69 473.9 78.06L459.9 64H579.4C595.2 64 608 76.83 608 92.65C608 95.73 607.5 98.79 606.5 101.7L542.9 292.6C537.4 308.1 522.2 320 504.9 320H185.7L198.2 368H528C532.4 368 536 371.6 536 376C536 380.4 532.4 384 528 384H191.1C188.4 384 185.2 381.5 184.3 378L89.82 16H40C35.58 16 32 12.42 32 8C32 3.582 35.58 0 40 0H96C99.64 0 102.8 2.458 103.7 5.98L118.9 64H276.1L262.1 78.06C261.4 78.69 260.8 79.34 260.2 80H123L181.5 304H504.9C515.3 304 524.4 297.4 527.7 287.6L591.4 96.65C591.8 95.36 592 94.01 592 92.65C592 85.66 586.3 80 579.4 80H579.4zM160 464C160 437.5 181.5 416 208 416C234.5 416 256 437.5 256 464C256 490.5 234.5 512 208 512C181.5 512 160 490.5 160 464zM208 496C225.7 496 240 481.7 240 464C240 446.3 225.7 432 208 432C190.3 432 176 446.3 176 464C176 481.7 190.3 496 208 496zM544 464C544 490.5 522.5 512 496 512C469.5 512 448 490.5 448 464C448 437.5 469.5 416 496 416C522.5 416 544 437.5 544 464zM496 432C478.3 432 464 446.3 464 464C464 481.7 478.3 496 496 496C513.7 496 528 481.7 528 464C528 446.3 513.7 432 496 432zM360 59.31L293.7 125.7C290.5 128.8 285.5 128.8 282.3 125.7C279.2 122.5 279.2 117.5 282.3 114.3L362.3 34.34C365.5 31.22 370.5 31.22 373.7 34.34L453.7 114.3C456.8 117.5 456.8 122.5 453.7 125.7C450.5 128.8 445.5 128.8 442.3 125.7L376 59.31V232C376 236.4 372.4 240 368 240C363.6 240 360 236.4 360 232L360 59.31z"/></svg>