<svg xmlns="http://www.w3.org/2000/svg" viewBox="0 0 384 512"><!--! Font Awesome Pro 6.0.0-beta2 by @fontawesome - https://fontawesome.com License - https://fontawesome.com/license (Commercial License) --><path d="M333.7 322.3C335.2 323.8 336 325.9 336 328V352C336 360.5 332.6 368.6 326.6 374.6C320.6 380.6 312.5 384 304 384H300.8L291 483.2C290.2 491.1 286.6 498.4 280.7 503.7C274.8 509.1 267.1 512 259.2 512H125.1C117.2 512 109.5 509.1 103.6 503.8C97.64 498.5 93.92 491.1 93.12 483.2L83.2 384H80C71.51 384 63.38 380.6 57.37 374.6C51.37 368.6 48 360.5 48 352V328C48 325.9 48.84 323.8 50.34 322.3C51.84 320.8 53.88 320 56 320C58.12 320 60.16 320.8 61.66 322.3C63.16 323.8 64 325.9 64 328V352C64 356.2 65.69 360.3 68.69 363.3C71.69 366.3 75.76 368 80 368H90.34C92.32 367.1 94.24 368.7 95.71 370.1C97.18 371.4 98.11 373.2 98.31 375.2L108.1 481.6C109.4 485.6 111.2 489.2 114.2 491.9C117.1 494.6 120.1 496 124.1 496H258.1C262.1 496 266.8 494.6 269.8 491.9C272.7 489.2 274.6 485.6 274.1 481.6L285.6 375.2C285.8 373.2 286.7 371.4 288.2 370.1C289.7 368.7 291.6 367.1 293.6 368H304C308.2 368 312.3 366.3 315.3 363.3C318.3 360.3 320 356.2 320 352V328C320 325.9 320.8 323.8 322.3 322.3C323.8 320.8 325.9 320 328 320C330.1 320 332.2 320.8 333.7 322.3zM383.9 220.7C384.5 232.3 381.9 243.8 376.5 254C371 264.3 362.9 272.9 352.1 278.9C343 284.8 331.6 287.1 320 288H64C47.64 288 31.89 281.8 20 270.5C8.12 259.3 1.005 243.9 .1304 227.6C-.7442 211.2 4.688 195.2 15.3 182.7C25.92 170.3 40.91 162.4 57.19 160.7C49.36 147.7 46.42 132.3 48.87 117.3C51.89 102.1 60.19 88.35 72.32 78.6C84.46 68.84 99.64 63.67 115.2 64H181.5C187.7 63.87 193.7 62.26 199.1 59.29C204.6 56.33 209.2 52.11 212.6 46.98C216 41.85 218.2 35.97 218.9 29.84C219.5 23.71 218.7 17.5 216.5 11.74C215.9 10.5 215.7 9.131 215.8 7.761C215.8 6.391 216.3 5.063 216.1 3.897C217.7 2.732 218.7 1.764 219.9 1.084C221.1 .4038 222.4 .031 223.8 .0003C224.2-.0314 224.6-.0314 225 .0003C256.2 3.463 284.1 18.56 305.6 42.29C326.1 66.01 336.1 96.62 336 128C335.5 139.6 331.8 150.8 325.5 160.5C336.3 161.4 346.7 164.1 355.8 170.9C362.6 175.5 368.5 181.4 373.1 188.2C379.5 197.9 383.3 209.1 383.9 220.7L383.9 220.7zM353.9 257.9C362.9 248.9 368 236.7 368 224C368 211.3 362.9 199.1 353.9 190.1C344.9 181.1 332.7 176 320 176H232C229.9 176 227.8 175.2 226.3 173.7C224.8 172.2 224 170.1 224 168C224 165.9 224.8 163.8 226.3 162.3C227.8 160.8 229.9 160 232 160H306.1C314.5 151.2 319.4 139.6 320 127.5C320.9 102.1 312.8 77.29 297.1 57.31C281.5 37.33 259.3 23.5 234.5 18.24C236.3 31.74 233 45.41 225.3 56.64C220.5 63.87 213.1 69.79 206.3 73.87C198.7 77.94 190.1 80.05 181.4 80H115.2C103.4 79.66 91.92 83.47 82.67 90.77C73.43 98.06 67.05 108.4 64.64 119.9C63.45 126.8 63.8 133.9 65.67 140.7C67.54 147.5 70.88 153.8 75.46 159.1C75.71 159.5 76.07 159.7 76.35 160H96C98.12 160 100.2 160.8 101.7 162.3C103.2 163.8 104 165.9 104 168C104 170.1 103.2 172.2 101.7 173.7C100.2 175.2 98.12 176 96 176H64C51.27 176 39.06 181.1 30.06 190.1C21.06 199.1 16 211.3 16 224C16 236.7 21.06 248.9 30.06 257.9C39.06 266.9 51.27 272 64 272H320C332.7 272 344.9 266.9 353.9 257.9z"/></svg>