<svg xmlns="http://www.w3.org/2000/svg" viewBox="0 0 576 512"><!--! Font Awesome Pro 6.0.0-beta2 by @fontawesome - https://fontawesome.com License - https://fontawesome.com/license (Commercial License) --><path d="M559.6 225.6l-177.2-177.2c-9.021-9.021-26.84-16.4-39.6-16.4L283.3 32l15.1 15.1h43.55c8.515 0 22.26 5.693 28.28 11.71l177.2 177.2c7.555 7.555 11.71 17.6 11.71 28.28c0 10.68-4.16 20.73-11.72 28.28l-158.8 158.8c-7.555 7.555-17.6 11.71-28.28 11.71c-10.68 0-20.73-4.162-28.28-11.72l-1.773-1.773l-11.31 11.31l1.773 1.773c10.94 10.94 25.39 16.37 39.72 16.37c14.33 0 28.55-5.427 39.48-16.36l158.8-158.8C581.5 282.9 581.5 247.5 559.6 225.6zM431.6 225.6L254.4 48.41C245.4 39.38 227.6 32 214.8 32H27.1C12.54 32 0 44.54 0 60v186.8C0 259.6 7.381 277.4 16.4 286.4l177.2 177.2c10.94 10.94 25.27 16.4 39.6 16.4c14.33 0 28.66-5.469 39.6-16.4l158.8-158.8C453.5 282.9 453.5 247.5 431.6 225.6zM261.5 452.3c-7.555 7.555-17.6 11.71-28.28 11.71s-20.73-4.162-28.28-11.72L27.72 275.1C21.69 269.1 15.1 255.3 15.1 246.8V60c0-6.617 5.383-11.1 11.1-11.1h186.8c8.515 0 22.26 5.693 28.28 11.71l177.2 177.2c7.555 7.555 11.71 17.6 11.71 28.28c0 10.68-4.16 20.73-11.72 28.28L261.5 452.3zM111.1 104c-22.08 0-39.1 17.9-39.1 39.1c0 22.1 17.92 39.1 39.1 39.1S151.1 166.1 151.1 144C151.1 121.9 134.1 104 111.1 104zM111.1 168c-13.23 0-24-10.77-24-24c0-13.23 10.77-24 24-24c13.23 0 24 10.77 24 24C135.1 157.2 125.2 168 111.1 168z"/></svg>