<svg xmlns="http://www.w3.org/2000/svg" viewBox="0 0 384 512"><!--! Font Awesome Pro 6.0.0-beta2 by @fontawesome - https://fontawesome.com License - https://fontawesome.com/license (Commercial License) --><path d="M104 216C117.3 216 128 226.7 128 240V272C128 285.3 117.3 296 104 296H72C58.75 296 48 285.3 48 272V240C48 226.7 58.75 216 72 216H104zM64 272C64 276.4 67.58 280 72 280H104C108.4 280 112 276.4 112 272V240C112 235.6 108.4 232 104 232H72C67.58 232 64 235.6 64 240V272zM152 240C152 226.7 162.7 216 176 216H208C221.3 216 232 226.7 232 240V272C232 285.3 221.3 296 208 296H176C162.7 296 152 285.3 152 272V240zM176 232C171.6 232 168 235.6 168 240V272C168 276.4 171.6 280 176 280H208C212.4 280 216 276.4 216 272V240C216 235.6 212.4 232 208 232H176zM312 216C325.3 216 336 226.7 336 240V272C336 285.3 325.3 296 312 296H280C266.7 296 256 285.3 256 272V240C256 226.7 266.7 216 280 216H312zM272 272C272 276.4 275.6 280 280 280H312C316.4 280 320 276.4 320 272V240C320 235.6 316.4 232 312 232H280C275.6 232 272 235.6 272 240V272zM48 112C48 98.75 58.75 88 72 88H104C117.3 88 128 98.75 128 112V144C128 157.3 117.3 168 104 168H72C58.75 168 48 157.3 48 144V112zM72 104C67.58 104 64 107.6 64 112V144C64 148.4 67.58 152 72 152H104C108.4 152 112 148.4 112 144V112C112 107.6 108.4 104 104 104H72zM208 88C221.3 88 232 98.75 232 112V144C232 157.3 221.3 168 208 168H176C162.7 168 152 157.3 152 144V112C152 98.75 162.7 88 176 88H208zM168 144C168 148.4 171.6 152 176 152H208C212.4 152 216 148.4 216 144V112C216 107.6 212.4 104 208 104H176C171.6 104 168 107.6 168 112V144zM256 112C256 98.75 266.7 88 280 88H312C325.3 88 336 98.75 336 112V144C336 157.3 325.3 168 312 168H280C266.7 168 256 157.3 256 144V112zM280 104C275.6 104 272 107.6 272 112V144C272 148.4 275.6 152 280 152H312C316.4 152 320 148.4 320 144V112C320 107.6 316.4 104 312 104H280zM48 512C21.49 512 0 490.5 0 464V48C0 21.49 21.49 0 48 0H336C362.5 0 384 21.49 384 48V464C384 490.5 362.5 512 336 512H48zM16 48V464C16 481.7 30.33 496 48 496H144V416C144 389.5 165.5 368 192 368C218.5 368 240 389.5 240 416V496H336C353.7 496 368 481.7 368 464V48C368 30.33 353.7 16 336 16H48C30.33 16 16 30.33 16 48zM160 496H224V416C224 398.3 209.7 384 192 384C174.3 384 160 398.3 160 416V496z"/></svg>