<svg xmlns="http://www.w3.org/2000/svg" viewBox="0 0 640 512"><!--! Font Awesome Pro 6.0.0-beta2 by @fontawesome - https://fontawesome.com License - https://fontawesome.com/license (Commercial License) --><path d="M64 0C67.64 0 70.82 2.458 71.74 5.98L86.88 64H547.4C563.2 64 576 76.83 576 92.65C576 95.73 575.5 98.79 574.5 101.7L542.4 198.2C537.2 196.8 531.1 195.6 526.7 194.7L559.4 96.65C559.8 95.36 560 94.01 560 92.65C560 85.66 554.3 80 547.4 80H91.05L149.5 304H331.1C329.1 309.2 328.2 314.6 326.6 320H153.7L166.2 368H319.1C319.1 373.4 320.2 378.7 320.7 384H159.1C156.4 384 153.2 381.5 152.3 378L57.82 16H8C3.582 16 0 12.42 0 8C0 3.582 3.582 0 8 0H64zM128 464C128 437.5 149.5 416 176 416C202.5 416 224 437.5 224 464C224 490.5 202.5 512 176 512C149.5 512 128 490.5 128 464zM176 496C193.7 496 208 481.7 208 464C208 446.3 193.7 432 176 432C158.3 432 144 446.3 144 464C144 481.7 158.3 496 176 496zM507.3 368L557.7 418.3C560.8 421.5 560.8 426.5 557.7 429.7C554.5 432.8 549.5 432.8 546.3 429.7L496 379.3L445.7 429.7C442.5 432.8 437.5 432.8 434.3 429.7C431.2 426.5 431.2 421.5 434.3 418.3L484.7 368L434.3 317.7C431.2 314.5 431.2 309.5 434.3 306.3C437.5 303.2 442.5 303.2 445.7 306.3L496 356.7L546.3 306.3C549.5 303.2 554.5 303.2 557.7 306.3C560.8 309.5 560.8 314.5 557.7 317.7L507.3 368zM640 368C640 447.5 575.5 512 496 512C416.5 512 352 447.5 352 368C352 288.5 416.5 224 496 224C575.5 224 640 288.5 640 368zM496 240C425.3 240 368 297.3 368 368C368 438.7 425.3 496 496 496C566.7 496 624 438.7 624 368C624 297.3 566.7 240 496 240z"/></svg>