<svg xmlns="http://www.w3.org/2000/svg" viewBox="0 0 640 512"><!--! Font Awesome Pro 6.0.0-beta2 by @fontawesome - https://fontawesome.com License - https://fontawesome.com/license (Commercial License) --><path d="M568 0C572.4 0 576 3.582 576 8C576 12.42 572.4 16 568 16H360V144H408C518.5 144 608 233.5 608 344V360C608 382.1 590.1 400 568 400H310.5C298.1 400 288 395 280.4 386.3L179.1 270.6L43.74 210.4C37.11 207.5 32.17 201.7 30.3 194.7L5.636 102.2C1.573 86.95 13.06 72 28.83 72H37.75C61.82 72 84.3 84.03 97.66 104.1L124.3 144H344V16H136C131.6 16 128 12.42 128 8C128 3.582 131.6 0 136 0H568zM28.83 88C23.57 88 19.74 92.98 21.1 98.06L45.76 190.5C46.38 192.9 48.03 194.8 50.24 195.8L188.9 257.4L292.5 375.8C297 381 303.6 384 310.5 384H399.1L400 160H115.7L84.34 112.9C73.96 97.36 56.47 88 37.75 88H28.83zM568 384C581.3 384 592 373.3 592 360V344C592 245.1 513.9 164.4 416 160.2V384H568zM634.1 463.5C621.4 492.9 592.5 512 560.5 512H232C227.6 512 224 508.4 224 504C224 499.6 227.6 496 232 496H560.5C586.1 496 609.3 480.7 619.4 457.2L624.6 444.8C626.4 440.8 631.1 438.9 635.2 440.6C639.2 442.4 641.1 447.1 639.4 451.2L634.1 463.5z"/></svg>