<svg xmlns="http://www.w3.org/2000/svg" viewBox="0 0 640 512"><!--! Font Awesome Pro 6.0.0-beta2 by @fontawesome - https://fontawesome.com License - https://fontawesome.com/license (Commercial License) --><path d="M344 81.94L320.1 104.1C311.6 114.3 296.4 114.3 287 104.1C277.7 95.6 277.7 80.4 287 71.03L351 7.029C360.4-2.343 375.6-2.343 384.1 7.029L448.1 71.03C458.3 80.4 458.3 95.6 448.1 104.1C439.6 114.3 424.4 114.3 415 104.1L392 81.94V184C392 197.3 381.3 208 368 208C354.7 208 344 197.3 344 184V81.94zM32 24C32 10.75 42.75 0 56 0H128C139.5 0 149.4 8.19 151.6 19.51L153.1 32H275.1L261.6 45.57C251.9 55.25 246.2 67.41 244.5 80H163.1L193.6 240H507.6L552.6 80H491.5C489.8 67.41 484.1 55.25 474.4 45.57L460.9 32H573.8C594.1 32 610.3 52.25 604.6 72.66L550.6 264.7C546.7 278.5 534.1 288 519.8 288H202.7L211.9 336H520C533.3 336 544 346.7 544 360C544 373.3 533.3 384 520 384H192C180.5 384 170.6 375.8 168.4 364.5L108.1 48H56C42.75 48 32 37.25 32 24H32zM256 464C256 490.5 234.5 512 208 512C181.5 512 160 490.5 160 464C160 437.5 181.5 416 208 416C234.5 416 256 437.5 256 464zM448 464C448 437.5 469.5 416 496 416C522.5 416 544 437.5 544 464C544 490.5 522.5 512 496 512C469.5 512 448 490.5 448 464z"/></svg>