<svg xmlns="http://www.w3.org/2000/svg" viewBox="0 0 448 512"><!--! Font Awesome Pro 6.0.0-beta2 by @fontawesome - https://fontawesome.com License - https://fontawesome.com/license (Commercial License) --><path d="M160 32V64H288V32C288 14.33 302.3 0 320 0C337.7 0 352 14.33 352 32V64H400C426.5 64 448 85.49 448 112V160H0V112C0 85.49 21.49 64 48 64H96V32C96 14.33 110.3 0 128 0C145.7 0 160 14.33 160 32zM0 192H448V464C448 490.5 426.5 512 400 512H48C21.49 512 0 490.5 0 464V192zM195.9 436.1L280.7 351.3L224.7 295.3L139.9 380.1C137.4 382.6 135.8 385.9 135.3 389.4L129.3 437.8C128.6 442.1 133 447.4 138.2 446.7L186.6 440.7C190.1 440.2 193.4 438.6 195.9 436.1V436.1zM313.4 318.6C325.9 306.1 325.9 285.9 313.4 273.4L302.6 262.6C290.1 250.1 269.9 250.1 257.4 262.6L247.3 272.7L303.3 328.7L313.4 318.6z"/></svg>