<svg xmlns="http://www.w3.org/2000/svg" viewBox="0 0 384 512"><!--! Font Awesome Pro 6.0.0-beta2 by @fontawesome - https://fontawesome.com License - https://fontawesome.com/license (Commercial License) --><path d="M352.6 182.7C363.2 195.2 368.7 211.2 367.8 227.5C366.9 243.9 359.8 259.3 347.1 270.5C336.1 281.8 320.4 288 304 287.1H80C63.64 288 47.9 281.8 36.02 270.5C24.14 259.3 17.03 243.9 16.16 227.6C15.29 211.2 20.72 195.2 31.34 182.7C41.96 170.3 56.95 162.4 73.22 160.7C67.35 150.1 64.17 139.9 64.01 128.6C63.85 117.3 66.7 106.1 72.28 96.28C77.86 86.44 85.97 78.25 95.76 72.58C105.6 66.9 116.7 63.94 128 64H165.5C172.9 63.99 180.2 61.79 186.3 57.66C192.5 53.54 197.3 47.69 200.1 40.84C202.9 33.99 203.7 26.46 202.2 19.19C200.8 11.92 197.2 5.245 192 0C225.9 0 258.5 13.49 282.5 37.49C306.5 61.5 320 94.05 320 128C319.1 139.5 316.8 150.8 310.8 160.7C327 162.4 342 170.3 352.6 182.7L352.6 182.7zM48 319.1H336V352C336 360.5 332.6 368.6 326.6 374.6C320.6 380.6 312.5 384 304 384H300.8L291 483.2C290.2 491.1 286.6 498.4 280.7 503.7C274.8 509.1 267.1 512 259.2 512H125.1C117.2 512 109.5 509.1 103.6 503.8C97.64 498.5 93.92 491.1 93.12 483.2L83.2 384H80C71.51 384 63.37 380.6 57.37 374.6C51.37 368.6 48 360.5 48 352V319.1z"/></svg>